<?xml version="1.0" encoding="UTF-8" standalone="no"?>
<!-- Created with Inkscape (http://www.inkscape.org/) -->

<svg
   xmlns:dc="http://purl.org/dc/elements/1.1/"
   xmlns:cc="http://creativecommons.org/ns#"
   xmlns:rdf="http://www.w3.org/1999/02/22-rdf-syntax-ns#"
   xmlns:svg="http://www.w3.org/2000/svg"
   xmlns="http://www.w3.org/2000/svg"
   xmlns:sodipodi="http://sodipodi.sourceforge.net/DTD/sodipodi-0.dtd"
   xmlns:inkscape="http://www.inkscape.org/namespaces/inkscape"
   sodipodi:docname="squiggle-line.svg"
   id="svg8"
   version="1.1"
   viewBox="0 0 451.19769 1.8690349"
   height="1.8690349mm"
   width="451.19769mm"
   inkscape:version="0.92.4 (5da689c313, 2019-01-14)">
  <defs
     id="defs2" />
  <sodipodi:namedview
     id="base"
     pagecolor="#ffffff"
     bordercolor="#666666"
     borderopacity="1.0"
     inkscape:pageopacity="0.0"
     inkscape:pageshadow="2"
     inkscape:zoom="0.49497475"
     inkscape:cx="932.06915"
     inkscape:cy="56.680959"
     inkscape:document-units="mm"
     inkscape:current-layer="layer1"
     showgrid="false"
     inkscape:window-width="1920"
     inkscape:window-height="1017"
     inkscape:window-x="-8"
     inkscape:window-y="-8"
     inkscape:window-maximized="1"
     fit-margin-top="0"
     fit-margin-left="0"
     fit-margin-right="0"
     fit-margin-bottom="0" />
  <metadata
     id="metadata5">
    <rdf:RDF>
      <cc:Work
         rdf:about="">
        <dc:format>image/svg+xml</dc:format>
        <dc:type
           rdf:resource="http://purl.org/dc/dcmitype/StillImage" />
        <dc:title></dc:title>
      </cc:Work>
    </rdf:RDF>
  </metadata>
  <g
     inkscape:label="Ebene 1"
     inkscape:groupmode="layer"
     id="layer1"
     transform="translate(123.56456,-176.36802)">
    <path
       inkscape:connector-curvature="0"
       id="path817-1-1"
       d="m -123.52247,177.16234 c 0,0 3.48387,-0.29432 9.81929,-0.29432 2.74732,0 6.18457,0.3739 9.95898,0.3739 2.97382,0 6.386214,0.15871 9.942477,0.15871 3.066749,0 6.133262,-9.5e-4 9.599497,-9.5e-4 3.11771,0 6.481139,0.0933 9.898093,0.0933 3.150034,0 6.497856,-0.37856 9.883688,-0.37856 3.171943,0 6.355566,0.25495 9.719354,0.25495 3.188356,0 6.365083,-0.38252 9.713013,-0.38252 3.200778,0 6.390047,0.17139 9.725559,0.17139 3.210813,0 6.461843,-0.0879 9.787619,-0.0879 3.219153,0 6.675213,0.61589 9.993137,0.61589 3.22573,0 6.3467912,-0.46155 9.6576825,-0.46155 3.2318871,0 6.52767445,0.0182 9.8330993,0.0182 3.236704,0 6.4830802,-0.0715 9.7831642,-0.0715 3.241284,0 6.903537,0.19611 10.199214,0.19611 3.245325,0 6.260084,0.0343 9.55172,0.0343 3.249247,0 6.464905,-0.0362 9.753096,-0.0362 3.252731,0 6.416523,-0.34684 9.701385,-0.34684 3.255766,0 6.591466,0.23054 9.872984,0.23054 3.259133,0 6.575629,0.10533 9.854474,0.10533 3.261519,0 6.342072,-0.17995 9.617499,-0.17995 3.264766,0 6.613723,0.2477 9.886771,0.2477 3.267249,0 6.801135,-0.19207 10.071134,-0.19207 3.26994,0 6.34747,0.0643 9.61467,0.0643 3.27266,0 6.86238,0.0758 10.12676,0.0758 3.27581,0 6.21166,-0.20215 9.47357,-0.20215 3.27869,0 6.51146,-0.0586 9.77046,-0.0586 3.28191,0 6.6812,0.22168 9.93736,0.22168 3.28482,0 6.45382,-0.3162 9.70652,-0.3162 3.28853,0 6.48704,-0.14018 9.73661,-0.14018 3.29198,0 6.61272,0.25834 9.85838,0.25834 3.29608,0 6.56394,-0.0493 9.80562,-0.0493 3.3,0 6.60775,0.10799 9.84438,0.10799 3.30521,0 6.47911,-0.0642 9.71079,-0.0642 3.31105,0 6.61694,0.0544 9.84282,0.0544 3.31768,0 6.52481,0.0763 9.74375,0.0763 3.32567,0 6.6865,0.21524 9.89723,0.21524 3.33572,0 6.59107,0.26335 9.79205,0.26335 3.34823,0 6.49577,-0.45731 9.68441,-0.45731 3.36428,0 6.48105,-0.13792 9.65344,-0.13792 3.38561,0 7.03249,0.30164 10.18234,0.30164 3.41706,0 6.65721,-0.56388 9.77502,-0.56388 3.46627,0 6.69015,0.19854 9.75696,0.19854 3.55631,0 7.13938,0.34497 10.11326,0.34497 3.77488,0 6.78446,-0.40096 9.53207,-0.40096 6.3357,0 9.7646,0.066 9.7646,0.066"
       style="fill:none;stroke:#000000;stroke-width:1;stroke-linecap:butt;stroke-linejoin:miter;stroke-miterlimit:4;stroke-dasharray:none;stroke-opacity:1" />
  </g>
</svg>
